<?xml version="1.0" encoding="us-ascii" standalone="no"?>
<svg xmlns="http://www.w3.org/2000/svg" xmlns:xlink="http://www.w3.org/1999/xlink" contentStyleType="text/css"
     height="1185px" preserveAspectRatio="none" style="width:1190px;height:1185px;background:#FFFFFF;" version="1.1"
     viewBox="0 0 1190 1185" width="1190px" zoomAndPan="magnify">
    <defs/>
    <rect fill="#FFFFFF" height="100%" width="100%" />
    <g>
        <text fill="#000000" font-family="sans-serif" font-size="25" font-weight="bold" lengthAdjust="spacing"
              textLength="269" x="459.5" y="39.1699">Project UML Diagram
        </text>
        <rect fill="#778899" height="29.3105" style="stroke:#181818;stroke-width:1.0;" width="10" x="64.5"
              y="173.5527"/>
        <rect fill="#778899" height="203.8633" style="stroke:#181818;stroke-width:1.0;" width="10" x="222.5"
              y="173.5527"/>
        <rect fill="#778899" height="50.3105" style="stroke:#181818;stroke-width:1.0;" width="10" x="387.5"
              y="377.416"/>
        <rect fill="#778899" height="43.3105" style="stroke:#181818;stroke-width:1.0;" width="10" x="387.5"
              y="618.9004"/>
        <rect fill="#778899" height="43.3105" style="stroke:#181818;stroke-width:1.0;" width="10" x="387.5"
              y="911.0059"/>
        <rect fill="#778899" height="191.1738" style="stroke:#181818;stroke-width:1.0;" width="10" x="554.5"
              y="427.7266"/>
        <rect fill="#778899" height="248.7949" style="stroke:#181818;stroke-width:1.0;" width="10" x="711.5"
              y="662.2109"/>
        <rect fill="#778899" height="128.5527" style="stroke:#181818;stroke-width:1.0;" width="10" x="894.5"
              y="954.3164"/>
        <rect fill="none" height="75.9316" style="stroke:#000000;stroke-width:1.5;" width="281.5" x="10" y="134.9316"/>
        <rect fill="none" height="146.5527" style="stroke:#000000;stroke-width:1.5;" width="278.5" x="163.5"
              y="238.8633"/>
        <rect fill="none" height="132.5527" style="stroke:#000000;stroke-width:1.5;" width="221" x="495.5"
              y="442.7266"/>
        <rect fill="none" height="190.1738" style="stroke:#000000;stroke-width:1.5;" width="236.5" x="663"
              y="677.2109"/>
        <rect fill="none" height="106.5527" style="stroke:#000000;stroke-width:1.5;" width="277.5" x="854.5"
              y="969.3164"/>
        <line style="stroke:#181818;stroke-width:0.5;stroke-dasharray:5.0,5.0;" x1="69" x2="69" y1="117.9316"
              y2="1106.8691"/>
        <line style="stroke:#181818;stroke-width:0.5;stroke-dasharray:5.0,5.0;" x1="227.5" x2="227.5" y1="117.9316"
              y2="1106.8691"/>
        <line style="stroke:#181818;stroke-width:0.5;stroke-dasharray:5.0,5.0;" x1="392" x2="392" y1="117.9316"
              y2="1106.8691"/>
        <line style="stroke:#181818;stroke-width:0.5;stroke-dasharray:5.0,5.0;" x1="559.5" x2="559.5" y1="117.9316"
              y2="1106.8691"/>
        <line style="stroke:#181818;stroke-width:0.5;stroke-dasharray:5.0,5.0;" x1="716" x2="716" y1="117.9316"
              y2="1106.8691"/>
        <line style="stroke:#181818;stroke-width:0.5;stroke-dasharray:5.0,5.0;" x1="899.5" x2="899.5" y1="117.9316"
              y2="1106.8691"/>
        <line style="stroke:#181818;stroke-width:0.5;stroke-dasharray:5.0,5.0;" x1="1094" x2="1094" y1="117.9316"
              y2="1106.8691"/>
        <line style="stroke:#181818;stroke-width:0.5;stroke-dasharray:5.0,5.0;" x1="1158" x2="1158" y1="117.9316"
              y2="1106.8691"/>
        <text fill="#000000" font-family="sans-serif" font-size="14" font-weight="bold" lengthAdjust="spacing"
              textLength="93" x="20" y="114.9785">YFinance API
        </text>
        <path d="M51.5,65.4434 C51.5,55.4434 69.5,55.4434 69.5,55.4434 C69.5,55.4434 87.5,55.4434 87.5,65.4434 L87.5,91.4434 C87.5,101.4434 69.5,101.4434 69.5,101.4434 C69.5,101.4434 51.5,101.4434 51.5,91.4434 L51.5,65.4434 "
              fill="#3D8B7F" style="stroke:#181818;stroke-width:1.5;"/>
        <path d="M51.5,65.4434 C51.5,75.4434 69.5,75.4434 69.5,75.4434 C69.5,75.4434 87.5,75.4434 87.5,65.4434 "
              fill="none" style="stroke:#181818;stroke-width:1.5;"/>
        <text fill="#000000" font-family="sans-serif" font-size="14" font-weight="bold" lengthAdjust="spacing"
              textLength="93" x="20" y="1119.4043">YFinance API
        </text>
        <path d="M51.5,1132.3574 C51.5,1122.3574 69.5,1122.3574 69.5,1122.3574 C69.5,1122.3574 87.5,1122.3574 87.5,1132.3574 L87.5,1158.3574 C87.5,1168.3574 69.5,1168.3574 69.5,1168.3574 C69.5,1168.3574 51.5,1168.3574 51.5,1158.3574 L51.5,1132.3574 "
              fill="#3D8B7F" style="stroke:#181818;stroke-width:1.5;"/>
        <path d="M51.5,1132.3574 C51.5,1142.3574 69.5,1142.3574 69.5,1142.3574 C69.5,1142.3574 87.5,1142.3574 87.5,1132.3574 "
              fill="none" style="stroke:#181818;stroke-width:1.5;"/>
        <rect fill="#FFFFFF" height="30.4883" rx="2.5" ry="2.5" style="stroke:#181818;stroke-width:0.5;" width="108"
              x="173.5" y="86.4434"/>
        <text fill="#000000" font-family="sans-serif" font-size="14" font-weight="bold" lengthAdjust="spacing"
              textLength="94" x="180.5" y="106.9785">Data Handler
        </text>
        <rect fill="#FFFFFF" height="30.4883" rx="2.5" ry="2.5" style="stroke:#181818;stroke-width:0.5;" width="108"
              x="173.5" y="1105.8691"/>
        <text fill="#000000" font-family="sans-serif" font-size="14" font-weight="bold" lengthAdjust="spacing"
              textLength="94" x="180.5" y="1126.4043">Data Handler
        </text>
        <text fill="#000000" font-family="sans-serif" font-size="14" font-weight="bold" lengthAdjust="spacing"
              textLength="73" x="353" y="114.9785">Local data
        </text>
        <path d="M374.5,65.4434 C374.5,55.4434 392.5,55.4434 392.5,55.4434 C392.5,55.4434 410.5,55.4434 410.5,65.4434 L410.5,91.4434 C410.5,101.4434 392.5,101.4434 392.5,101.4434 C392.5,101.4434 374.5,101.4434 374.5,91.4434 L374.5,65.4434 "
              fill="#4682B4" style="stroke:#181818;stroke-width:1.5;"/>
        <path d="M374.5,65.4434 C374.5,75.4434 392.5,75.4434 392.5,75.4434 C392.5,75.4434 410.5,75.4434 410.5,65.4434 "
              fill="none" style="stroke:#181818;stroke-width:1.5;"/>
        <text fill="#000000" font-family="sans-serif" font-size="14" font-weight="bold" lengthAdjust="spacing"
              textLength="73" x="353" y="1119.4043">Local data
        </text>
        <path d="M374.5,1132.3574 C374.5,1122.3574 392.5,1122.3574 392.5,1122.3574 C392.5,1122.3574 410.5,1122.3574 410.5,1132.3574 L410.5,1158.3574 C410.5,1168.3574 392.5,1168.3574 392.5,1168.3574 C392.5,1168.3574 374.5,1168.3574 374.5,1158.3574 L374.5,1132.3574 "
              fill="#4682B4" style="stroke:#181818;stroke-width:1.5;"/>
        <path d="M374.5,1132.3574 C374.5,1142.3574 392.5,1142.3574 392.5,1142.3574 C392.5,1142.3574 410.5,1142.3574 410.5,1132.3574 "
              fill="none" style="stroke:#181818;stroke-width:1.5;"/>
        <rect fill="#FFFFFF" height="30.4883" rx="2.5" ry="2.5" style="stroke:#181818;stroke-width:0.5;" width="108"
              x="505.5" y="86.4434"/>
        <text fill="#000000" font-family="sans-serif" font-size="14" font-weight="bold" lengthAdjust="spacing"
              textLength="94" x="512.5" y="106.9785">Computation
        </text>
        <rect fill="#FFFFFF" height="30.4883" rx="2.5" ry="2.5" style="stroke:#181818;stroke-width:0.5;" width="108"
              x="505.5" y="1105.8691"/>
        <text fill="#000000" font-family="sans-serif" font-size="14" font-weight="bold" lengthAdjust="spacing"
              textLength="94" x="512.5" y="1126.4043">Computation
        </text>
        <rect fill="#FFFFFF" height="30.4883" rx="2.5" ry="2.5" style="stroke:#181818;stroke-width:0.5;" width="87"
              x="673" y="86.4434"/>
        <text fill="#000000" font-family="sans-serif" font-size="14" font-weight="bold" lengthAdjust="spacing"
              textLength="73" x="680" y="106.9785">Prediction
        </text>
        <rect fill="#FFFFFF" height="30.4883" rx="2.5" ry="2.5" style="stroke:#181818;stroke-width:0.5;" width="87"
              x="673" y="1105.8691"/>
        <text fill="#000000" font-family="sans-serif" font-size="14" font-weight="bold" lengthAdjust="spacing"
              textLength="73" x="680" y="1126.4043">Prediction
        </text>
        <rect fill="#FFFFFF" height="30.4883" rx="2.5" ry="2.5" style="stroke:#181818;stroke-width:0.5;" width="70"
              x="864.5" y="86.4434"/>
        <text fill="#000000" font-family="sans-serif" font-size="14" font-weight="bold" lengthAdjust="spacing"
              textLength="56" x="871.5" y="106.9785">Grapher
        </text>
        <rect fill="#FFFFFF" height="30.4883" rx="2.5" ry="2.5" style="stroke:#181818;stroke-width:0.5;" width="70"
              x="864.5" y="1105.8691"/>
        <text fill="#000000" font-family="sans-serif" font-size="14" font-weight="bold" lengthAdjust="spacing"
              textLength="56" x="871.5" y="1126.4043">Grapher
        </text>
        <rect fill="#DAA520" height="30.4883" style="stroke:#181818;stroke-width:0.5;" width="51" x="1071" y="82.4434"/>
        <rect fill="#DAA520" height="30.4883" style="stroke:#181818;stroke-width:0.5;" width="51" x="1067" y="86.4434"/>
        <text fill="#000000" font-family="sans-serif" font-size="14" font-weight="bold" lengthAdjust="spacing"
              textLength="37" x="1074" y="106.9785">Plots
        </text>
        <rect fill="#DAA520" height="30.4883" style="stroke:#181818;stroke-width:0.5;" width="51" x="1071"
              y="1105.8691"/>
        <rect fill="#DAA520" height="30.4883" style="stroke:#181818;stroke-width:0.5;" width="51" x="1067"
              y="1109.8691"/>
        <text fill="#000000" font-family="sans-serif" font-size="14" font-weight="bold" lengthAdjust="spacing"
              textLength="37" x="1074" y="1130.4043">Plots
        </text>
        <rect fill="#DAA520" height="30.4883" style="stroke:#181818;stroke-width:0.5;" width="48" x="1136" y="82.4434"/>
        <rect fill="#DAA520" height="30.4883" style="stroke:#181818;stroke-width:0.5;" width="48" x="1132" y="86.4434"/>
        <text fill="#000000" font-family="sans-serif" font-size="14" font-weight="bold" lengthAdjust="spacing"
              textLength="34" x="1139" y="106.9785">Logs
        </text>
        <rect fill="#DAA520" height="30.4883" style="stroke:#181818;stroke-width:0.5;" width="48" x="1136"
              y="1105.8691"/>
        <rect fill="#DAA520" height="30.4883" style="stroke:#181818;stroke-width:0.5;" width="48" x="1132"
              y="1109.8691"/>
        <text fill="#000000" font-family="sans-serif" font-size="14" font-weight="bold" lengthAdjust="spacing"
              textLength="34" x="1139" y="1130.4043">Logs
        </text>
        <rect fill="#778899" height="29.3105" style="stroke:#181818;stroke-width:1.0;" width="10" x="64.5"
              y="173.5527"/>
        <rect fill="#778899" height="203.8633" style="stroke:#181818;stroke-width:1.0;" width="10" x="222.5"
              y="173.5527"/>
        <rect fill="#778899" height="50.3105" style="stroke:#181818;stroke-width:1.0;" width="10" x="387.5"
              y="377.416"/>
        <rect fill="#778899" height="43.3105" style="stroke:#181818;stroke-width:1.0;" width="10" x="387.5"
              y="618.9004"/>
        <rect fill="#778899" height="43.3105" style="stroke:#181818;stroke-width:1.0;" width="10" x="387.5"
              y="911.0059"/>
        <rect fill="#778899" height="191.1738" style="stroke:#181818;stroke-width:1.0;" width="10" x="554.5"
              y="427.7266"/>
        <rect fill="#778899" height="248.7949" style="stroke:#181818;stroke-width:1.0;" width="10" x="711.5"
              y="662.2109"/>
        <rect fill="#778899" height="128.5527" style="stroke:#181818;stroke-width:1.0;" width="10" x="894.5"
              y="954.3164"/>
        <path d="M10,134.9316 L148,134.9316 L148,142.2422 L138,152.2422 L10,152.2422 L10,134.9316 " fill="#EEEEEE"
              style="stroke:#000000;stroke-width:1.5;"/>
        <rect fill="none" height="75.9316" style="stroke:#000000;stroke-width:1.5;" width="281.5" x="10" y="134.9316"/>
        <text fill="#000000" font-family="sans-serif" font-size="13" font-weight="bold" lengthAdjust="spacing"
              textLength="93" x="25" y="148.5">Data Fetching
        </text>
        <polygon fill="#181818" points="85.5,169.5527,75.5,173.5527,85.5,177.5527,81.5,173.5527"
                 style="stroke:#181818;stroke-width:1.0;"/>
        <line style="stroke:#181818;stroke-width:1.0;" x1="79.5" x2="221.5" y1="173.5527" y2="173.5527"/>
        <text fill="#000000" font-family="sans-serif" font-size="13" font-weight="bold" lengthAdjust="spacing"
              textLength="9" x="91.5" y="168.8105">1
        </text>
        <text fill="#000000" font-family="sans-serif" font-size="13" lengthAdjust="spacing" textLength="110" x="104.5"
              y="168.8105">Send query to API
        </text>
        <polygon fill="#181818" points="210.5,198.8633,220.5,202.8633,210.5,206.8633,214.5,202.8633"
                 style="stroke:#181818;stroke-width:1.0;"/>
        <line style="stroke:#181818;stroke-width:1.0;" x1="69.5" x2="216.5" y1="202.8633" y2="202.8633"/>
        <text fill="#000000" font-family="sans-serif" font-size="13" font-weight="bold" lengthAdjust="spacing"
              textLength="9" x="76.5" y="198.1211">2
        </text>
        <text fill="#000000" font-family="sans-serif" font-size="13" lengthAdjust="spacing" textLength="111" x="89.5"
              y="198.1211">Return stock data
        </text>
        <line style="stroke:#181818;stroke-width:1.0;" x1="1156" x2="1146" y1="223.8633" y2="219.8633"/>
        <line style="stroke:#181818;stroke-width:1.0;" x1="1156" x2="1146" y1="223.8633" y2="227.8633"/>
        <line style="stroke:#181818;stroke-width:1.0;stroke-dasharray:2.0,2.0;" x1="232.5" x2="1157" y1="223.8633"
              y2="223.8633"/>
        <path d="M163.5,238.8633 L347.5,238.8633 L347.5,246.1738 L337.5,256.1738 L163.5,256.1738 L163.5,238.8633 "
              fill="#EEEEEE" style="stroke:#000000;stroke-width:1.5;"/>
        <rect fill="none" height="146.5527" style="stroke:#000000;stroke-width:1.5;" width="278.5" x="163.5"
              y="238.8633"/>
        <text fill="#000000" font-family="sans-serif" font-size="13" font-weight="bold" lengthAdjust="spacing"
              textLength="139" x="178.5" y="252.4316">Data Pre-processing
        </text>
        <line style="stroke:#181818;stroke-width:1.0;" x1="232.5" x2="274.5" y1="277.4844" y2="277.4844"/>
        <line style="stroke:#181818;stroke-width:1.0;" x1="274.5" x2="274.5" y1="277.4844" y2="290.4844"/>
        <line style="stroke:#181818;stroke-width:1.0;" x1="233.5" x2="274.5" y1="290.4844" y2="290.4844"/>
        <polygon fill="#181818" points="243.5,286.4844,233.5,290.4844,243.5,294.4844,239.5,290.4844"
                 style="stroke:#181818;stroke-width:1.0;"/>
        <text fill="#000000" font-family="sans-serif" font-size="13" font-weight="bold" lengthAdjust="spacing"
              textLength="9" x="239.5" y="272.7422">3
        </text>
        <text fill="#000000" font-family="sans-serif" font-size="13" lengthAdjust="spacing" textLength="63" x="252.5"
              y="272.7422">Filter data
        </text>
        <line style="stroke:#181818;stroke-width:1.0;" x1="232.5" x2="274.5" y1="319.7949" y2="319.7949"/>
        <line style="stroke:#181818;stroke-width:1.0;" x1="274.5" x2="274.5" y1="319.7949" y2="332.7949"/>
        <line style="stroke:#181818;stroke-width:1.0;" x1="233.5" x2="274.5" y1="332.7949" y2="332.7949"/>
        <polygon fill="#181818" points="243.5,328.7949,233.5,332.7949,243.5,336.7949,239.5,332.7949"
                 style="stroke:#181818;stroke-width:1.0;"/>
        <text fill="#000000" font-family="sans-serif" font-size="13" font-weight="bold" lengthAdjust="spacing"
              textLength="9" x="239.5" y="315.0527">4
        </text>
        <text fill="#000000" font-family="sans-serif" font-size="13" lengthAdjust="spacing" textLength="76" x="252.5"
              y="315.0527">Reduce data
        </text>
        <polygon fill="#181818" points="375.5,373.416,385.5,377.416,375.5,381.416,379.5,377.416"
                 style="stroke:#181818;stroke-width:1.0;"/>
        <line style="stroke:#181818;stroke-width:1.0;" x1="227.5" x2="381.5" y1="377.416" y2="377.416"/>
        <text fill="#000000" font-family="sans-serif" font-size="13" font-weight="bold" lengthAdjust="spacing"
              textLength="9" x="234.5" y="365.0186">5
        </text>
        <text fill="#000000" font-family="sans-serif" font-size="13" lengthAdjust="spacing" textLength="119" x="247.5"
              y="357.3633">Out pre-processed
        </text>
        <text fill="#000000" font-family="sans-serif" font-size="13" lengthAdjust="spacing" textLength="79" x="251.5"
              y="372.6738">data to JSON
        </text>
        <line style="stroke:#181818;stroke-width:1.0;" x1="1156" x2="1146" y1="398.416" y2="394.416"/>
        <line style="stroke:#181818;stroke-width:1.0;" x1="1156" x2="1146" y1="398.416" y2="402.416"/>
        <line style="stroke:#181818;stroke-width:1.0;stroke-dasharray:2.0,2.0;" x1="227.5" x2="1157" y1="398.416"
              y2="398.416"/>
        <polygon fill="#181818" points="542.5,423.7266,552.5,427.7266,542.5,431.7266,546.5,427.7266"
                 style="stroke:#181818;stroke-width:1.0;"/>
        <line style="stroke:#181818;stroke-width:1.0;" x1="392.5" x2="548.5" y1="427.7266" y2="427.7266"/>
        <text fill="#000000" font-family="sans-serif" font-size="13" font-weight="bold" lengthAdjust="spacing"
              textLength="9" x="399.5" y="422.9844">6
        </text>
        <text fill="#000000" font-family="sans-serif" font-size="13" lengthAdjust="spacing" textLength="61" x="412.5"
              y="422.9844">Load data
        </text>
        <path d="M495.5,442.7266 L650.5,442.7266 L650.5,450.0371 L640.5,460.0371 L495.5,460.0371 L495.5,442.7266 "
              fill="#EEEEEE" style="stroke:#000000;stroke-width:1.5;"/>
        <rect fill="none" height="132.5527" style="stroke:#000000;stroke-width:1.5;" width="221" x="495.5"
              y="442.7266"/>
        <text fill="#000000" font-family="sans-serif" font-size="13" font-weight="bold" lengthAdjust="spacing"
              textLength="110" x="510.5" y="456.2949">Data Computing
        </text>
        <line style="stroke:#181818;stroke-width:1.0;" x1="564.5" x2="606.5" y1="496.6582" y2="496.6582"/>
        <line style="stroke:#181818;stroke-width:1.0;" x1="606.5" x2="606.5" y1="496.6582" y2="509.6582"/>
        <line style="stroke:#181818;stroke-width:1.0;" x1="565.5" x2="606.5" y1="509.6582" y2="509.6582"/>
        <polygon fill="#181818" points="575.5,505.6582,565.5,509.6582,575.5,513.6582,571.5,509.6582"
                 style="stroke:#181818;stroke-width:1.0;"/>
        <text fill="#000000" font-family="sans-serif" font-size="13" font-weight="bold" lengthAdjust="spacing"
              textLength="9" x="571.5" y="484.2607">7
        </text>
        <text fill="#000000" font-family="sans-serif" font-size="13" lengthAdjust="spacing" textLength="96" x="584.5"
              y="476.6055">Compute stock
        </text>
        <text fill="#000000" font-family="sans-serif" font-size="13" lengthAdjust="spacing" textLength="74" x="588.5"
              y="491.916">profitability
        </text>
        <line style="stroke:#181818;stroke-width:1.0;" x1="564.5" x2="606.5" y1="554.2793" y2="554.2793"/>
        <line style="stroke:#181818;stroke-width:1.0;" x1="606.5" x2="606.5" y1="554.2793" y2="567.2793"/>
        <line style="stroke:#181818;stroke-width:1.0;" x1="565.5" x2="606.5" y1="567.2793" y2="567.2793"/>
        <polygon fill="#181818" points="575.5,563.2793,565.5,567.2793,575.5,571.2793,571.5,567.2793"
                 style="stroke:#181818;stroke-width:1.0;"/>
        <text fill="#000000" font-family="sans-serif" font-size="13" font-weight="bold" lengthAdjust="spacing"
              textLength="9" x="571.5" y="541.8818">8
        </text>
        <text fill="#000000" font-family="sans-serif" font-size="13" lengthAdjust="spacing" textLength="116" x="584.5"
              y="534.2266">Compute portfolio
        </text>
        <text fill="#000000" font-family="sans-serif" font-size="13" lengthAdjust="spacing" textLength="78" x="588.5"
              y="549.5371">Sharpe Ratio
        </text>
        <polygon fill="#181818" points="408.5,614.9004,398.5,618.9004,408.5,622.9004,404.5,618.9004"
                 style="stroke:#181818;stroke-width:1.0;"/>
        <line style="stroke:#181818;stroke-width:1.0;" x1="402.5" x2="558.5" y1="618.9004" y2="618.9004"/>
        <text fill="#000000" font-family="sans-serif" font-size="13" font-weight="bold" lengthAdjust="spacing"
              textLength="9" x="414.5" y="606.5029">9
        </text>
        <text fill="#000000" font-family="sans-serif" font-size="13" lengthAdjust="spacing" textLength="121" x="427.5"
              y="598.8477">Out computed data
        </text>
        <text fill="#000000" font-family="sans-serif" font-size="13" lengthAdjust="spacing" textLength="48" x="431.5"
              y="614.1582">to JSON
        </text>
        <line style="stroke:#181818;stroke-width:1.0;" x1="1156" x2="1146" y1="632.9004" y2="628.9004"/>
        <line style="stroke:#181818;stroke-width:1.0;" x1="1156" x2="1146" y1="632.9004" y2="636.9004"/>
        <line style="stroke:#181818;stroke-width:1.0;stroke-dasharray:2.0,2.0;" x1="559.5" x2="1157" y1="632.9004"
              y2="632.9004"/>
        <polygon fill="#181818" points="699.5,658.2109,709.5,662.2109,699.5,666.2109,703.5,662.2109"
                 style="stroke:#181818;stroke-width:1.0;"/>
        <line style="stroke:#181818;stroke-width:1.0;" x1="392.5" x2="705.5" y1="662.2109" y2="662.2109"/>
        <text fill="#000000" font-family="sans-serif" font-size="13" font-weight="bold" lengthAdjust="spacing"
              textLength="18" x="399.5" y="657.4688">10
        </text>
        <text fill="#000000" font-family="sans-serif" font-size="13" lengthAdjust="spacing" textLength="61" x="421.5"
              y="657.4688">Load data
        </text>
        <path d="M663,677.2109 L811,677.2109 L811,684.5215 L801,694.5215 L663,694.5215 L663,677.2109 " fill="#EEEEEE"
              style="stroke:#000000;stroke-width:1.5;"/>
        <rect fill="none" height="190.1738" style="stroke:#000000;stroke-width:1.5;" width="236.5" x="663"
              y="677.2109"/>
        <text fill="#000000" font-family="sans-serif" font-size="13" font-weight="bold" lengthAdjust="spacing"
              textLength="103" x="678" y="690.7793">Data Prediction
        </text>
        <line style="stroke:#181818;stroke-width:1.0;" x1="721.5" x2="763.5" y1="731.1426" y2="731.1426"/>
        <line style="stroke:#181818;stroke-width:1.0;" x1="763.5" x2="763.5" y1="731.1426" y2="744.1426"/>
        <line style="stroke:#181818;stroke-width:1.0;" x1="722.5" x2="763.5" y1="744.1426" y2="744.1426"/>
        <polygon fill="#181818" points="732.5,740.1426,722.5,744.1426,732.5,748.1426,728.5,744.1426"
                 style="stroke:#181818;stroke-width:1.0;"/>
        <text fill="#000000" font-family="sans-serif" font-size="13" font-weight="bold" lengthAdjust="spacing"
              textLength="18" x="728.5" y="718.7451">11
        </text>
        <text fill="#000000" font-family="sans-serif" font-size="13" lengthAdjust="spacing" textLength="92" x="750.5"
              y="711.0898">Predict current
        </text>
        <text fill="#000000" font-family="sans-serif" font-size="13" lengthAdjust="spacing" textLength="133" x="754.5"
              y="726.4004">portfolio profitability
        </text>
        <line style="stroke:#181818;stroke-width:1.0;" x1="721.5" x2="763.5" y1="788.7637" y2="788.7637"/>
        <line style="stroke:#181818;stroke-width:1.0;" x1="763.5" x2="763.5" y1="788.7637" y2="801.7637"/>
        <line style="stroke:#181818;stroke-width:1.0;" x1="722.5" x2="763.5" y1="801.7637" y2="801.7637"/>
        <polygon fill="#181818" points="732.5,797.7637,722.5,801.7637,732.5,805.7637,728.5,801.7637"
                 style="stroke:#181818;stroke-width:1.0;"/>
        <text fill="#000000" font-family="sans-serif" font-size="13" font-weight="bold" lengthAdjust="spacing"
              textLength="18" x="728.5" y="776.3662">12
        </text>
        <text fill="#000000" font-family="sans-serif" font-size="13" lengthAdjust="spacing" textLength="126" x="750.5"
              y="768.7109">Predict other stocks
        </text>
        <text fill="#000000" font-family="sans-serif" font-size="13" lengthAdjust="spacing" textLength="74" x="754.5"
              y="784.0215">profitability
        </text>
        <line style="stroke:#181818;stroke-width:1.0;" x1="721.5" x2="763.5" y1="846.3848" y2="846.3848"/>
        <line style="stroke:#181818;stroke-width:1.0;" x1="763.5" x2="763.5" y1="846.3848" y2="859.3848"/>
        <line style="stroke:#181818;stroke-width:1.0;" x1="722.5" x2="763.5" y1="859.3848" y2="859.3848"/>
        <polygon fill="#181818" points="732.5,855.3848,722.5,859.3848,732.5,863.3848,728.5,859.3848"
                 style="stroke:#181818;stroke-width:1.0;"/>
        <text fill="#000000" font-family="sans-serif" font-size="13" font-weight="bold" lengthAdjust="spacing"
              textLength="18" x="728.5" y="833.9873">13
        </text>
        <text fill="#000000" font-family="sans-serif" font-size="13" lengthAdjust="spacing" textLength="77" x="750.5"
              y="826.332">Recommend
        </text>
        <text fill="#000000" font-family="sans-serif" font-size="13" lengthAdjust="spacing" textLength="88" x="754.5"
              y="841.6426">trading action
        </text>
        <polygon fill="#181818" points="408.5,907.0059,398.5,911.0059,408.5,915.0059,404.5,911.0059"
                 style="stroke:#181818;stroke-width:1.0;"/>
        <line style="stroke:#181818;stroke-width:1.0;" x1="402.5" x2="715.5" y1="911.0059" y2="911.0059"/>
        <text fill="#000000" font-family="sans-serif" font-size="13" font-weight="bold" lengthAdjust="spacing"
              textLength="18" x="414.5" y="898.6084">14
        </text>
        <text fill="#000000" font-family="sans-serif" font-size="13" lengthAdjust="spacing" textLength="117" x="436.5"
              y="890.9531">Out predicted data
        </text>
        <text fill="#000000" font-family="sans-serif" font-size="13" lengthAdjust="spacing" textLength="48" x="440.5"
              y="906.2637">to JSON
        </text>
        <line style="stroke:#181818;stroke-width:1.0;" x1="1156" x2="1146" y1="925.0059" y2="921.0059"/>
        <line style="stroke:#181818;stroke-width:1.0;" x1="1156" x2="1146" y1="925.0059" y2="929.0059"/>
        <line style="stroke:#181818;stroke-width:1.0;stroke-dasharray:2.0,2.0;" x1="716.5" x2="1157" y1="925.0059"
              y2="925.0059"/>
        <polygon fill="#181818" points="882.5,950.3164,892.5,954.3164,882.5,958.3164,886.5,954.3164"
                 style="stroke:#181818;stroke-width:1.0;"/>
        <line style="stroke:#181818;stroke-width:1.0;" x1="392.5" x2="888.5" y1="954.3164" y2="954.3164"/>
        <text fill="#000000" font-family="sans-serif" font-size="13" font-weight="bold" lengthAdjust="spacing"
              textLength="18" x="399.5" y="949.5742">15
        </text>
        <text fill="#000000" font-family="sans-serif" font-size="13" lengthAdjust="spacing" textLength="61" x="421.5"
              y="949.5742">Load data
        </text>
        <path d="M854.5,969.3164 L1020.5,969.3164 L1020.5,976.627 L1010.5,986.627 L854.5,986.627 L854.5,969.3164 "
              fill="#EEEEEE" style="stroke:#000000;stroke-width:1.5;"/>
        <rect fill="none" height="106.5527" style="stroke:#000000;stroke-width:1.5;" width="277.5" x="854.5"
              y="969.3164"/>
        <text fill="#000000" font-family="sans-serif" font-size="13" font-weight="bold" lengthAdjust="spacing"
              textLength="121" x="869.5" y="982.8848">Data Visualisation
        </text>
        <polygon fill="#181818" points="1082.5,1019.248,1092.5,1023.248,1082.5,1027.248,1086.5,1023.248"
                 style="stroke:#181818;stroke-width:1.0;"/>
        <line style="stroke:#181818;stroke-width:1.0;" x1="904.5" x2="1088.5" y1="1023.248" y2="1023.248"/>
        <text fill="#000000" font-family="sans-serif" font-size="13" font-weight="bold" lengthAdjust="spacing"
              textLength="18" x="911.5" y="1010.8506">16
        </text>
        <text fill="#000000" font-family="sans-serif" font-size="13" lengthAdjust="spacing" textLength="83" x="933.5"
              y="1003.1953">Plot portfolio
        </text>
        <text fill="#000000" font-family="sans-serif" font-size="13" lengthAdjust="spacing" textLength="74" x="937.5"
              y="1018.5059">distribution
        </text>
        <polygon fill="#181818" points="1082.5,1063.8691,1092.5,1067.8691,1082.5,1071.8691,1086.5,1067.8691"
                 style="stroke:#181818;stroke-width:1.0;"/>
        <line style="stroke:#181818;stroke-width:1.0;" x1="904.5" x2="1088.5" y1="1067.8691" y2="1067.8691"/>
        <text fill="#000000" font-family="sans-serif" font-size="13" font-weight="bold" lengthAdjust="spacing"
              textLength="18" x="911.5" y="1055.4717">17
        </text>
        <text fill="#000000" font-family="sans-serif" font-size="13" lengthAdjust="spacing" textLength="140" x="933.5"
              y="1047.8164">Plot candlestick graph
        </text>
        <text fill="#000000" font-family="sans-serif" font-size="13" lengthAdjust="spacing" textLength="123" x="937.5"
              y="1063.127">for portfolio stocks
        </text>
        <line style="stroke:#181818;stroke-width:1.0;" x1="1156" x2="1146" y1="1088.8691" y2="1084.8691"/>
        <line style="stroke:#181818;stroke-width:1.0;" x1="1156" x2="1146" y1="1088.8691" y2="1092.8691"/>
        <line style="stroke:#181818;stroke-width:1.0;stroke-dasharray:2.0,2.0;" x1="899.5" x2="1157" y1="1088.8691"
              y2="1088.8691"/><!--SRC=[fLLDZzCm4BtdLunspxs04AY7IkokMa25hLfWXSJ5jQU9gMi7Uuoq_7hifDlOQR9RYLlJUVFyvZr_kBtKDRFi02jcIN9PCqrpesb3ZmfXQvGet0bpnuXjcSDHmArH2Zb9ezqeveRnVMcDroAWZOM7IX8czQ-ILBk2_8lmwirWgIDcdepsXotQeYWe0c1bpQ-W0hvzNiATP6Le3JLn50zNF-PICyqHtgy-Ni7rwxjtDs_dHTqP05TnKlZ0j51e0wJLs34i3MSAudSeRWXHtIYF6SMjETIUMFJYgJyjhomAoSUg2ylg2krJYNUsmaePSd2z2BEZNXkH5PUcp6f54Pskc-1WZiGhgSiYdsuoomsPmWQrWDyUxIEGYVyLBF3_OOHdnYnbMT56XTB2ucE2wtdSm-Nbe22ZdS8QoLiDZWpVDpON0aUuYo0spDbjWzXLzsUSp6RHcnHcqVa3vXQ5L2QrDHoT6pIg9tCk5GMcHk1Bs3KA7oGFOvFzD8LxJr1tGb30JztKOXgVDlTVCZCogYI0R8lsxFzlorBsoIpPwjEm1PbefqnyRH7HqbHwGj89pyvDJtTIwwtQVk1nnmI_Wdax6OwhL98kQQoDfPrHqiJcJSLiZR2EcCQihFyyBTwIj7D7We6W4eeBKng8ADLnUJxTNJCIJmTuEP_quke9xahvciVVmBsrg2ccSt8xp-ab1aDLQmNVk_EKnxhN608wn4ijHcEP21iHM3jlJ3Vj6poAiVfykec3buRRppPHSNcqnuSYpNKimIJlxz9vfgJhxSRJgzFJUlm_c1hVdcdp1EK7HaX7LcvzmpS8vysrui8BjuSo0cBRBZp_7KyRQvD8CiEHRS2mftMUSUiV]-->
    </g>
</svg>