<?xml version="1.0" encoding="us-ascii" standalone="no"?>
<svg xmlns="http://www.w3.org/2000/svg" xmlns:xlink="http://www.w3.org/1999/xlink" contentStyleType="text/css"
     height="1204px" preserveAspectRatio="none" style="width:867px;height:1204px;background:#FFFFFF;" version="1.1"
     viewBox="0 0 867 1204" width="867px" zoomAndPan="magnify">
    <defs/>
    <g>
        <text fill="#000000" font-family="sans-serif" font-size="25" font-weight="bold" lengthAdjust="spacing"
              textLength="269" x="300.75" y="39.1699">Project UML Diagram
        </text>
        <rect fill="#778899" height="310.0371" style="stroke:#181818;stroke-width:1.0;" width="10" x="371"
              y="127.9316"/>
        <rect fill="#778899" height="314.0605" style="stroke:#181818;stroke-width:1.0;" width="10" x="524"
              y="498.5898"/>
        <rect fill="#778899" height="243.4395" style="stroke:#181818;stroke-width:1.0;" width="10" x="667"
              y="865.2715"/>
        <rect fill="none" height="311.0371" style="stroke:#000000;stroke-width:1.5;" width="841.5" x="10" y="134.9316"/>
        <rect fill="none" height="352.6816" style="stroke:#000000;stroke-width:1.5;" width="563" x="109" y="459.9688"/>
        <rect fill="#90EE90" height="234.4395" style="stroke:#000000;stroke-width:1.5;" width="537" x="119"
              y="571.2109"/>
        <rect fill="#FFC0CB" height="159.5078" style="stroke:none;stroke-width:1.0;" width="537" x="119" y="646.1426"/>
        <rect fill="none" height="282.0605" style="stroke:#000000;stroke-width:1.5;" width="752.5" x="109"
              y="826.6504"/>
        <rect fill="#90EE90" height="221.4395" style="stroke:#000000;stroke-width:1.5;" width="732.5" x="119"
              y="880.2715"/>
        <rect fill="#FFC0CB" height="72.5762" style="stroke:none;stroke-width:1.0;" width="732.5" x="119"
              y="1029.1348"/>
        <line style="stroke:#181818;stroke-width:0.5;stroke-dasharray:5.0,5.0;" x1="69" x2="69" y1="117.9316"
              y2="1125.7109"/>
        <line style="stroke:#181818;stroke-width:0.5;stroke-dasharray:5.0,5.0;" x1="168" x2="168" y1="117.9316"
              y2="1125.7109"/>
        <line style="stroke:#181818;stroke-width:0.5;stroke-dasharray:5.0,5.0;" x1="249" x2="249" y1="117.9316"
              y2="1125.7109"/>
        <line style="stroke:#181818;stroke-width:0.5;stroke-dasharray:5.0,5.0;" x1="376" x2="376" y1="117.9316"
              y2="1125.7109"/>
        <line style="stroke:#181818;stroke-width:0.5;stroke-dasharray:5.0,5.0;" x1="528.5" x2="528.5" y1="117.9316"
              y2="1125.7109"/>
        <line style="stroke:#181818;stroke-width:0.5;stroke-dasharray:5.0,5.0;" x1="672" x2="672" y1="117.9316"
              y2="1125.7109"/>
        <line style="stroke:#181818;stroke-width:0.5;stroke-dasharray:5.0,5.0;" x1="813.5" x2="813.5" y1="117.9316"
              y2="1125.7109"/>
        <text fill="#000000" font-family="sans-serif" font-size="14" font-weight="bold" lengthAdjust="spacing"
              textLength="93" x="20" y="114.9785">YFinance API
        </text>
        <path d="M51.5,65.4434 C51.5,55.4434 69.5,55.4434 69.5,55.4434 C69.5,55.4434 87.5,55.4434 87.5,65.4434 L87.5,91.4434 C87.5,101.4434 69.5,101.4434 69.5,101.4434 C69.5,101.4434 51.5,101.4434 51.5,91.4434 L51.5,65.4434 "
              fill="#3D8B7F" style="stroke:#181818;stroke-width:1.5;"/>
        <path d="M51.5,65.4434 C51.5,75.4434 69.5,75.4434 69.5,75.4434 C69.5,75.4434 87.5,75.4434 87.5,65.4434 "
              fill="none" style="stroke:#181818;stroke-width:1.5;"/>
        <text fill="#000000" font-family="sans-serif" font-size="14" font-weight="bold" lengthAdjust="spacing"
              textLength="93" x="20" y="1138.2461">YFinance API
        </text>
        <path d="M51.5,1151.1992 C51.5,1141.1992 69.5,1141.1992 69.5,1141.1992 C69.5,1141.1992 87.5,1141.1992 87.5,1151.1992 L87.5,1177.1992 C87.5,1187.1992 69.5,1187.1992 69.5,1187.1992 C69.5,1187.1992 51.5,1187.1992 51.5,1177.1992 L51.5,1151.1992 "
              fill="#3D8B7F" style="stroke:#181818;stroke-width:1.5;"/>
        <path d="M51.5,1151.1992 C51.5,1161.1992 69.5,1161.1992 69.5,1161.1992 C69.5,1161.1992 87.5,1161.1992 87.5,1151.1992 "
              fill="none" style="stroke:#181818;stroke-width:1.5;"/>
        <text fill="#000000" font-family="sans-serif" font-size="14" font-weight="bold" lengthAdjust="spacing"
              textLength="73" x="129" y="114.9785">Local data
        </text>
        <path d="M150.5,65.4434 C150.5,55.4434 168.5,55.4434 168.5,55.4434 C168.5,55.4434 186.5,55.4434 186.5,65.4434 L186.5,91.4434 C186.5,101.4434 168.5,101.4434 168.5,101.4434 C168.5,101.4434 150.5,101.4434 150.5,91.4434 L150.5,65.4434 "
              fill="#4682B4" style="stroke:#181818;stroke-width:1.5;"/>
        <path d="M150.5,65.4434 C150.5,75.4434 168.5,75.4434 168.5,75.4434 C168.5,75.4434 186.5,75.4434 186.5,65.4434 "
              fill="none" style="stroke:#181818;stroke-width:1.5;"/>
        <text fill="#000000" font-family="sans-serif" font-size="14" font-weight="bold" lengthAdjust="spacing"
              textLength="73" x="129" y="1138.2461">Local data
        </text>
        <path d="M150.5,1151.1992 C150.5,1141.1992 168.5,1141.1992 168.5,1141.1992 C168.5,1141.1992 186.5,1141.1992 186.5,1151.1992 L186.5,1177.1992 C186.5,1187.1992 168.5,1187.1992 168.5,1187.1992 C168.5,1187.1992 150.5,1187.1992 150.5,1177.1992 L150.5,1151.1992 "
              fill="#4682B4" style="stroke:#181818;stroke-width:1.5;"/>
        <path d="M150.5,1151.1992 C150.5,1161.1992 168.5,1161.1992 168.5,1161.1992 C168.5,1161.1992 186.5,1161.1992 186.5,1151.1992 "
              fill="none" style="stroke:#181818;stroke-width:1.5;"/>
        <rect fill="#FFFFFF" height="30.4883" rx="2.5" ry="2.5" style="stroke:#181818;stroke-width:0.5;" width="62"
              x="218" y="86.4434"/>
        <text fill="#000000" font-family="sans-serif" font-size="14" font-weight="bold" lengthAdjust="spacing"
              textLength="48" x="225" y="106.9785">Config
        </text>
        <rect fill="#FFFFFF" height="30.4883" rx="2.5" ry="2.5" style="stroke:#181818;stroke-width:0.5;" width="62"
              x="218" y="1124.7109"/>
        <text fill="#000000" font-family="sans-serif" font-size="14" font-weight="bold" lengthAdjust="spacing"
              textLength="48" x="225" y="1145.2461">Config
        </text>
        <rect fill="#FFFFFF" height="30.4883" rx="2.5" ry="2.5" style="stroke:#181818;stroke-width:0.5;" width="108"
              x="322" y="86.4434"/>
        <text fill="#000000" font-family="sans-serif" font-size="14" font-weight="bold" lengthAdjust="spacing"
              textLength="94" x="329" y="106.9785">Computation
        </text>
        <rect fill="#FFFFFF" height="30.4883" rx="2.5" ry="2.5" style="stroke:#181818;stroke-width:0.5;" width="108"
              x="322" y="1124.7109"/>
        <text fill="#000000" font-family="sans-serif" font-size="14" font-weight="bold" lengthAdjust="spacing"
              textLength="94" x="329" y="1145.2461">Computation
        </text>
        <rect fill="#FFFFFF" height="30.4883" rx="2.5" ry="2.5" style="stroke:#181818;stroke-width:0.5;" width="87"
              x="485.5" y="86.4434"/>
        <text fill="#000000" font-family="sans-serif" font-size="14" font-weight="bold" lengthAdjust="spacing"
              textLength="73" x="492.5" y="106.9785">Prediction
        </text>
        <rect fill="#FFFFFF" height="30.4883" rx="2.5" ry="2.5" style="stroke:#181818;stroke-width:0.5;" width="87"
              x="485.5" y="1124.7109"/>
        <text fill="#000000" font-family="sans-serif" font-size="14" font-weight="bold" lengthAdjust="spacing"
              textLength="73" x="492.5" y="1145.2461">Prediction
        </text>
        <rect fill="#FFFFFF" height="30.4883" rx="2.5" ry="2.5" style="stroke:#181818;stroke-width:0.5;" width="76"
              x="634" y="86.4434"/>
        <text fill="#000000" font-family="sans-serif" font-size="14" font-weight="bold" lengthAdjust="spacing"
              textLength="62" x="641" y="106.9785">Decision
        </text>
        <rect fill="#FFFFFF" height="30.4883" rx="2.5" ry="2.5" style="stroke:#181818;stroke-width:0.5;" width="76"
              x="634" y="1124.7109"/>
        <text fill="#000000" font-family="sans-serif" font-size="14" font-weight="bold" lengthAdjust="spacing"
              textLength="62" x="641" y="1145.2461">Decision
        </text>
        <rect fill="#DAA520" height="30.4883" style="stroke:#181818;stroke-width:0.5;" width="51" x="790.5"
              y="82.4434"/>
        <rect fill="#DAA520" height="30.4883" style="stroke:#181818;stroke-width:0.5;" width="51" x="786.5"
              y="86.4434"/>
        <text fill="#000000" font-family="sans-serif" font-size="14" font-weight="bold" lengthAdjust="spacing"
              textLength="37" x="793.5" y="106.9785">Plots
        </text>
        <rect fill="#DAA520" height="30.4883" style="stroke:#181818;stroke-width:0.5;" width="51" x="790.5"
              y="1124.7109"/>
        <rect fill="#DAA520" height="30.4883" style="stroke:#181818;stroke-width:0.5;" width="51" x="786.5"
              y="1128.7109"/>
        <text fill="#000000" font-family="sans-serif" font-size="14" font-weight="bold" lengthAdjust="spacing"
              textLength="37" x="793.5" y="1149.2461">Plots
        </text>
        <rect fill="#778899" height="310.0371" style="stroke:#181818;stroke-width:1.0;" width="10" x="371"
              y="127.9316"/>
        <rect fill="#778899" height="314.0605" style="stroke:#181818;stroke-width:1.0;" width="10" x="524"
              y="498.5898"/>
        <rect fill="#778899" height="243.4395" style="stroke:#181818;stroke-width:1.0;" width="10" x="667"
              y="865.2715"/>
        <path d="M10,134.9316 L198,134.9316 L198,142.2422 L188,152.2422 L10,152.2422 L10,134.9316 " fill="#EEEEEE"
              style="stroke:#000000;stroke-width:1.5;"/>
        <rect fill="none" height="311.0371" style="stroke:#000000;stroke-width:1.5;" width="841.5" x="10" y="134.9316"/>
        <text fill="#000000" font-family="sans-serif" font-size="13" font-weight="bold" lengthAdjust="spacing"
              textLength="143" x="25" y="148.5">Portfolio initialisation
        </text>
        <polygon fill="#181818" points="80.5,169.5527,70.5,173.5527,80.5,177.5527,76.5,173.5527"
                 style="stroke:#181818;stroke-width:1.0;"/>
        <polygon fill="#181818" points="359,169.5527,369,173.5527,359,177.5527,363,173.5527"
                 style="stroke:#181818;stroke-width:1.0;"/>
        <line style="stroke:#181818;stroke-width:1.0;" x1="74.5" x2="365" y1="173.5527" y2="173.5527"/>
        <text fill="#000000" font-family="sans-serif" font-size="13" font-weight="bold" lengthAdjust="spacing"
              textLength="9" x="86.5" y="168.8105">1
        </text>
        <text fill="#000000" font-family="sans-serif" font-size="13" lengthAdjust="spacing" textLength="113" x="99.5"
              y="168.8105">Fetch market data
        </text>
        <polygon fill="#181818" points="260,214.1738,250,218.1738,260,222.1738,256,218.1738"
                 style="stroke:#181818;stroke-width:1.0;"/>
        <polygon fill="#181818" points="359,214.1738,369,218.1738,359,222.1738,363,218.1738"
                 style="stroke:#181818;stroke-width:1.0;"/>
        <line style="stroke:#181818;stroke-width:1.0;" x1="254" x2="365" y1="218.1738" y2="218.1738"/>
        <text fill="#000000" font-family="sans-serif" font-size="13" font-weight="bold" lengthAdjust="spacing"
              textLength="9" x="266" y="205.7764">2
        </text>
        <text fill="#000000" font-family="sans-serif" font-size="13" lengthAdjust="spacing" textLength="30" x="279"
              y="198.1211">Load
        </text>
        <text fill="#000000" font-family="sans-serif" font-size="13" lengthAdjust="spacing" textLength="85" x="279"
              y="213.4316">configuration
        </text>
        <line style="stroke:#181818;stroke-width:1.0;" x1="381" x2="423" y1="262.7949" y2="262.7949"/>
        <line style="stroke:#181818;stroke-width:1.0;" x1="423" x2="423" y1="262.7949" y2="275.7949"/>
        <line style="stroke:#181818;stroke-width:1.0;" x1="382" x2="423" y1="275.7949" y2="275.7949"/>
        <polygon fill="#181818" points="392,271.7949,382,275.7949,392,279.7949,388,275.7949"
                 style="stroke:#181818;stroke-width:1.0;"/>
        <text fill="#000000" font-family="sans-serif" font-size="13" font-weight="bold" lengthAdjust="spacing"
              textLength="9" x="388" y="250.3975">3
        </text>
        <text fill="#000000" font-family="sans-serif" font-size="13" lengthAdjust="spacing" textLength="93" x="401"
              y="242.7422">Compute most
        </text>
        <text fill="#000000" font-family="sans-serif" font-size="13" lengthAdjust="spacing" textLength="116" x="401"
              y="258.0527">performing stocks
        </text>
        <line style="stroke:#181818;stroke-width:1.0;" x1="381" x2="423" y1="335.7266" y2="335.7266"/>
        <line style="stroke:#181818;stroke-width:1.0;" x1="423" x2="423" y1="335.7266" y2="348.7266"/>
        <line style="stroke:#181818;stroke-width:1.0;" x1="382" x2="423" y1="348.7266" y2="348.7266"/>
        <polygon fill="#181818" points="392,344.7266,382,348.7266,392,352.7266,388,348.7266"
                 style="stroke:#181818;stroke-width:1.0;"/>
        <text fill="#000000" font-family="sans-serif" font-size="13" font-weight="bold" lengthAdjust="spacing"
              textLength="9" x="388" y="315.6738">4
        </text>
        <text fill="#000000" font-family="sans-serif" font-size="13" lengthAdjust="spacing" textLength="111" x="401"
              y="300.3633">Solve constrained
        </text>
        <text fill="#000000" font-family="sans-serif" font-size="13" lengthAdjust="spacing" textLength="80" x="401"
              y="315.6738">optimisation
        </text>
        <text fill="#000000" font-family="sans-serif" font-size="13" lengthAdjust="spacing" textLength="52" x="401"
              y="330.9844">problem
        </text>
        <polygon fill="#181818" points="179.5,389.3477,169.5,393.3477,179.5,397.3477,175.5,393.3477"
                 style="stroke:#181818;stroke-width:1.0;"/>
        <line style="stroke:#181818;stroke-width:1.0;" x1="173.5" x2="370" y1="393.3477" y2="393.3477"/>
        <text fill="#000000" font-family="sans-serif" font-size="13" font-weight="bold" lengthAdjust="spacing"
              textLength="9" x="185.5" y="380.9502">5
        </text>
        <text fill="#000000" font-family="sans-serif" font-size="13" lengthAdjust="spacing" textLength="98" x="198.5"
              y="373.2949">Output currrent
        </text>
        <text fill="#000000" font-family="sans-serif" font-size="13" lengthAdjust="spacing" textLength="107" x="198.5"
              y="388.6055">portfolio to JSON
        </text>
        <polygon fill="#181818" points="387,433.9688,377,437.9688,387,441.9688,383,437.9688"
                 style="stroke:#181818;stroke-width:1.0;"/>
        <polygon fill="#181818" points="802,433.9688,812,437.9688,802,441.9688,806,437.9688"
                 style="stroke:#181818;stroke-width:1.0;"/>
        <line style="stroke:#181818;stroke-width:1.0;" x1="381" x2="808" y1="437.9688" y2="437.9688"/>
        <text fill="#000000" font-family="sans-serif" font-size="13" font-weight="bold" lengthAdjust="spacing"
              textLength="9" x="393" y="425.5713">6
        </text>
        <text fill="#000000" font-family="sans-serif" font-size="13" lengthAdjust="spacing" textLength="73" x="406"
              y="417.916">Plot current
        </text>
        <text fill="#000000" font-family="sans-serif" font-size="13" lengthAdjust="spacing" textLength="55" x="406"
              y="433.2266">portfolio
        </text>
        <path d="M109,459.9688 L285,459.9688 L285,467.2793 L275,477.2793 L109,477.2793 L109,459.9688 " fill="#EEEEEE"
              style="stroke:#000000;stroke-width:1.5;"/>
        <rect fill="none" height="352.6816" style="stroke:#000000;stroke-width:1.5;" width="563" x="109" y="459.9688"/>
        <text fill="#000000" font-family="sans-serif" font-size="13" font-weight="bold" lengthAdjust="spacing"
              textLength="131" x="124" y="473.5371">Portfolio evaluation
        </text>
        <polygon fill="#181818" points="179.5,494.5898,169.5,498.5898,179.5,502.5898,175.5,498.5898"
                 style="stroke:#181818;stroke-width:1.0;"/>
        <polygon fill="#181818" points="512,494.5898,522,498.5898,512,502.5898,516,498.5898"
                 style="stroke:#181818;stroke-width:1.0;"/>
        <line style="stroke:#181818;stroke-width:1.0;" x1="173.5" x2="518" y1="498.5898" y2="498.5898"/>
        <text fill="#000000" font-family="sans-serif" font-size="13" font-weight="bold" lengthAdjust="spacing"
              textLength="9" x="185.5" y="493.8477">7
        </text>
        <text fill="#000000" font-family="sans-serif" font-size="13" lengthAdjust="spacing" textLength="169" x="198.5"
              y="493.8477">Load current portfolio data
        </text>
        <line style="stroke:#181818;stroke-width:1.0;" x1="534" x2="576" y1="543.2109" y2="543.2109"/>
        <line style="stroke:#181818;stroke-width:1.0;" x1="576" x2="576" y1="543.2109" y2="556.2109"/>
        <line style="stroke:#181818;stroke-width:1.0;" x1="535" x2="576" y1="556.2109" y2="556.2109"/>
        <polygon fill="#181818" points="545,552.2109,535,556.2109,545,560.2109,541,556.2109"
                 style="stroke:#181818;stroke-width:1.0;"/>
        <text fill="#000000" font-family="sans-serif" font-size="13" font-weight="bold" lengthAdjust="spacing"
              textLength="9" x="541" y="530.8135">8
        </text>
        <text fill="#000000" font-family="sans-serif" font-size="13" lengthAdjust="spacing" textLength="102" x="554"
              y="523.1582">Predict portfolio
        </text>
        <text fill="#000000" font-family="sans-serif" font-size="13" lengthAdjust="spacing" textLength="77" x="554"
              y="538.4688">stock prices
        </text>
        <path d="M119,571.2109 L181,571.2109 L181,578.5215 L171,588.5215 L119,588.5215 L119,571.2109 " fill="#EEEEEE"
              style="stroke:#000000;stroke-width:1.5;"/>
        <rect fill="none" height="234.4395" style="stroke:#000000;stroke-width:1.5;" width="537" x="119" y="571.2109"/>
        <text fill="#000000" font-family="sans-serif" font-size="13" font-weight="bold" lengthAdjust="spacing"
              textLength="17" x="134" y="584.7793">alt
        </text>
        <text fill="#000000" font-family="sans-serif" font-size="11" font-weight="bold" lengthAdjust="spacing"
              textLength="101" x="196" y="583.8457">[Bullish portfolio]
        </text>
        <line style="stroke:#181818;stroke-width:1.0;stroke-dasharray:2.0,2.0;" x1="534" x2="576" y1="625.1426"
              y2="625.1426"/>
        <line style="stroke:#181818;stroke-width:1.0;stroke-dasharray:2.0,2.0;" x1="576" x2="576" y1="625.1426"
              y2="638.1426"/>
        <line style="stroke:#181818;stroke-width:1.0;stroke-dasharray:2.0,2.0;" x1="535" x2="576" y1="638.1426"
              y2="638.1426"/>
        <polygon fill="#181818" points="545,634.1426,535,638.1426,545,642.1426,541,638.1426"
                 style="stroke:#181818;stroke-width:1.0;"/>
        <text fill="#000000" font-family="sans-serif" font-size="13" font-weight="bold" lengthAdjust="spacing"
              textLength="9" x="541" y="612.7451">9
        </text>
        <text fill="#000000" font-family="sans-serif" font-size="13" lengthAdjust="spacing" textLength="90" x="554"
              y="605.0898">Return current
        </text>
        <text fill="#000000" font-family="sans-serif" font-size="13" lengthAdjust="spacing" textLength="54" x="554"
              y="620.4004">Portfolio
        </text>
        <line style="stroke:#000000;stroke-width:1.0;stroke-dasharray:2.0,2.0;" x1="119" x2="656" y1="647.1426"
              y2="647.1426"/>
        <text fill="#000000" font-family="sans-serif" font-size="11" font-weight="bold" lengthAdjust="spacing"
              textLength="158" x="124" y="657.7773">[Bearish stocks in portfolio]
        </text>
        <line style="stroke:#181818;stroke-width:1.0;" x1="534" x2="576" y1="697.7188" y2="697.7188"/>
        <line style="stroke:#181818;stroke-width:1.0;" x1="576" x2="576" y1="697.7188" y2="710.7188"/>
        <line style="stroke:#181818;stroke-width:1.0;" x1="535" x2="576" y1="710.7188" y2="710.7188"/>
        <polygon fill="#181818" points="545,706.7188,535,710.7188,545,714.7188,541,710.7188"
                 style="stroke:#181818;stroke-width:1.0;"/>
        <text fill="#000000" font-family="sans-serif" font-size="13" font-weight="bold" lengthAdjust="spacing"
              textLength="18" x="541" y="685.3213">10
        </text>
        <text fill="#000000" font-family="sans-serif" font-size="13" lengthAdjust="spacing" textLength="80" x="563"
              y="677.666">Predict other
        </text>
        <text fill="#000000" font-family="sans-serif" font-size="13" lengthAdjust="spacing" textLength="42" x="563"
              y="692.9766">stocks
        </text>
        <line style="stroke:#181818;stroke-width:1.0;" x1="534" x2="576" y1="755.3398" y2="755.3398"/>
        <line style="stroke:#181818;stroke-width:1.0;" x1="576" x2="576" y1="755.3398" y2="768.3398"/>
        <line style="stroke:#181818;stroke-width:1.0;" x1="535" x2="576" y1="768.3398" y2="768.3398"/>
        <polygon fill="#181818" points="545,764.3398,535,768.3398,545,772.3398,541,768.3398"
                 style="stroke:#181818;stroke-width:1.0;"/>
        <text fill="#000000" font-family="sans-serif" font-size="13" font-weight="bold" lengthAdjust="spacing"
              textLength="18" x="541" y="742.9424">11
        </text>
        <text fill="#000000" font-family="sans-serif" font-size="13" lengthAdjust="spacing" textLength="79" x="563"
              y="735.2871">Suggest new
        </text>
        <text fill="#000000" font-family="sans-serif" font-size="13" lengthAdjust="spacing" textLength="70" x="563"
              y="750.5977">investment
        </text>
        <polygon fill="#181818" points="179.5,793.6504,169.5,797.6504,179.5,801.6504,175.5,797.6504"
                 style="stroke:#181818;stroke-width:1.0;"/>
        <line style="stroke:#181818;stroke-width:1.0;" x1="173.5" x2="523" y1="797.6504" y2="797.6504"/>
        <text fill="#000000" font-family="sans-serif" font-size="13" font-weight="bold" lengthAdjust="spacing"
              textLength="18" x="185.5" y="792.9082">12
        </text>
        <text fill="#000000" font-family="sans-serif" font-size="13" lengthAdjust="spacing" textLength="170" x="207.5"
              y="792.9082">Output suggestion to JSON
        </text>
        <path d="M109,826.6504 L270,826.6504 L270,833.9609 L260,843.9609 L109,843.9609 L109,826.6504 " fill="#EEEEEE"
              style="stroke:#000000;stroke-width:1.5;"/>
        <rect fill="none" height="282.0605" style="stroke:#000000;stroke-width:1.5;" width="752.5" x="109"
              y="826.6504"/>
        <text fill="#000000" font-family="sans-serif" font-size="13" font-weight="bold" lengthAdjust="spacing"
              textLength="116" x="124" y="840.2188">Decision-making
        </text>
        <polygon fill="#181818" points="179.5,861.2715,169.5,865.2715,179.5,869.2715,175.5,865.2715"
                 style="stroke:#181818;stroke-width:1.0;"/>
        <polygon fill="#181818" points="655,861.2715,665,865.2715,655,869.2715,659,865.2715"
                 style="stroke:#181818;stroke-width:1.0;"/>
        <line style="stroke:#181818;stroke-width:1.0;" x1="173.5" x2="661" y1="865.2715" y2="865.2715"/>
        <text fill="#000000" font-family="sans-serif" font-size="13" font-weight="bold" lengthAdjust="spacing"
              textLength="18" x="185.5" y="860.5293">13
        </text>
        <text fill="#000000" font-family="sans-serif" font-size="13" lengthAdjust="spacing" textLength="178" x="207.5"
              y="860.5293">Load investment suggestion
        </text>
        <path d="M119,880.2715 L181,880.2715 L181,887.582 L171,897.582 L119,897.582 L119,880.2715 " fill="#EEEEEE"
              style="stroke:#000000;stroke-width:1.5;"/>
        <rect fill="none" height="221.4395" style="stroke:#000000;stroke-width:1.5;" width="732.5" x="119"
              y="880.2715"/>
        <text fill="#000000" font-family="sans-serif" font-size="13" font-weight="bold" lengthAdjust="spacing"
              textLength="17" x="134" y="893.8398">alt
        </text>
        <text fill="#000000" font-family="sans-serif" font-size="11" font-weight="bold" lengthAdjust="spacing"
              textLength="109" x="196" y="892.9063">[Act on suggestion]
        </text>
        <line style="stroke:#181818;stroke-width:1.0;" x1="677" x2="719" y1="934.2031" y2="934.2031"/>
        <line style="stroke:#181818;stroke-width:1.0;" x1="719" x2="719" y1="934.2031" y2="947.2031"/>
        <line style="stroke:#181818;stroke-width:1.0;" x1="678" x2="719" y1="947.2031" y2="947.2031"/>
        <polygon fill="#181818" points="688,943.2031,678,947.2031,688,951.2031,684,947.2031"
                 style="stroke:#181818;stroke-width:1.0;"/>
        <text fill="#000000" font-family="sans-serif" font-size="13" font-weight="bold" lengthAdjust="spacing"
              textLength="18" x="684" y="921.8057">14
        </text>
        <text fill="#000000" font-family="sans-serif" font-size="13" lengthAdjust="spacing" textLength="92" x="706"
              y="914.1504">Modify current
        </text>
        <text fill="#000000" font-family="sans-serif" font-size="13" lengthAdjust="spacing" textLength="55" x="706"
              y="929.4609">portfolio
        </text>
        <polygon fill="#181818" points="179.5,972.5137,169.5,976.5137,179.5,980.5137,175.5,976.5137"
                 style="stroke:#181818;stroke-width:1.0;"/>
        <line style="stroke:#181818;stroke-width:1.0;" x1="173.5" x2="666" y1="976.5137" y2="976.5137"/>
        <text fill="#000000" font-family="sans-serif" font-size="13" font-weight="bold" lengthAdjust="spacing"
              textLength="18" x="185.5" y="971.7715">15
        </text>
        <text fill="#000000" font-family="sans-serif" font-size="13" lengthAdjust="spacing" textLength="184" x="207.5"
              y="971.7715">Output new portfolio to JSON
        </text>
        <polygon fill="#181818" points="688,1017.1348,678,1021.1348,688,1025.1348,684,1021.1348"
                 style="stroke:#181818;stroke-width:1.0;"/>
        <polygon fill="#181818" points="802,1017.1348,812,1021.1348,802,1025.1348,806,1021.1348"
                 style="stroke:#181818;stroke-width:1.0;"/>
        <line style="stroke:#181818;stroke-width:1.0;" x1="682" x2="808" y1="1021.1348" y2="1021.1348"/>
        <text fill="#000000" font-family="sans-serif" font-size="13" font-weight="bold" lengthAdjust="spacing"
              textLength="18" x="694" y="1008.7373">16
        </text>
        <text fill="#000000" font-family="sans-serif" font-size="13" lengthAdjust="spacing" textLength="53" x="716"
              y="1001.082">Plot new
        </text>
        <text fill="#000000" font-family="sans-serif" font-size="13" lengthAdjust="spacing" textLength="55" x="716"
              y="1016.3926">portfolio
        </text>
        <line style="stroke:#000000;stroke-width:1.0;stroke-dasharray:2.0,2.0;" x1="119" x2="851.5" y1="1030.1348"
              y2="1030.1348"/>
        <text fill="#000000" font-family="sans-serif" font-size="11" font-weight="bold" lengthAdjust="spacing"
              textLength="146" x="124" y="1040.7695">[Stay on current portfolio]
        </text>
        <line style="stroke:#181818;stroke-width:1.0;stroke-dasharray:2.0,2.0;" x1="677" x2="719" y1="1080.7109"
              y2="1080.7109"/>
        <line style="stroke:#181818;stroke-width:1.0;stroke-dasharray:2.0,2.0;" x1="719" x2="719" y1="1080.7109"
              y2="1093.7109"/>
        <line style="stroke:#181818;stroke-width:1.0;stroke-dasharray:2.0,2.0;" x1="678" x2="719" y1="1093.7109"
              y2="1093.7109"/>
        <polygon fill="#181818" points="688,1089.7109,678,1093.7109,688,1097.7109,684,1093.7109"
                 style="stroke:#181818;stroke-width:1.0;"/>
        <text fill="#000000" font-family="sans-serif" font-size="13" font-weight="bold" lengthAdjust="spacing"
              textLength="18" x="684" y="1068.3135">17
        </text>
        <text fill="#000000" font-family="sans-serif" font-size="13" lengthAdjust="spacing" textLength="90" x="706"
              y="1060.6582">Return current
        </text>
        <text fill="#000000" font-family="sans-serif" font-size="13" lengthAdjust="spacing" textLength="55" x="706"
              y="1075.9688">portfolio
        </text><!--SRC=[XLJ1ZjCm4BtxAqRRSoyW18fMAssfkW9rsMW3GaYzkCuqDNNio9uKbQ_7Jfh4JTCb9zipR-RvlN7SGUgAMrv2oYr98IkkQMKqPNHI25kZSkRwd2KdlkKERoPyDagX86cqkvcpuE9GM5Fht6SR2p_taZ2AVvUasWxoByAx3vEXeJ2loUYwtA9bZ558WDIQtvu5_7XUmrBomaDzB3-JXxjVAwcv5WYFwPSxcBrVVbfyN4NnjH5SGTZxQ4Q8Qg5gPDMWaB-etia2PYtvoqXPrSI31bFXr68knQte4eLqKKmCUaAg33cOFVbBeturkRzIaB62r5ZQ6IKDI2r9SYLTqvvnZpnomajEQrdiALF-_CdYYSMn-_d3I9q4LaXY3oMt1wH6aoj4gqK2QyDps6ZHR6lRSeYJczn-cvmt2ALnv84LsfsnfTG5E3BYuDu4PqOT4NmpHvPBZVb6cufaURvyg6VDLc4vhXBRcy1BJJu8ehRMecvez7AIWQ_PopVMAdy_PX2E6-08ntASKfwXdl8CZrpLRK8q6_TNH1jrksu3nyQHlbqyNIEVev2lFUoIRXqLtUZ60AYi5EWOLtGkvokXXaMj_8pj1m03_yKDvWznWrUaskgE_4RtbsUe_7kRfL8VO87SXgAjzNwKtoW_pT_G7ksPkliF9gkB0ltKQVopqL8V_Rhqt2PGa-FYMdX8wOOak1iPFnIvyBrxuFEI-xzQmVe7VyFmWLhKS_1x-5-Ct1vRzXZqqN6DSDCUxfjtwmIUJIvtfyd97eCcnV6QmlKZQfJj7zBGhNb50HBtYUOY8tuArAz6VqJcekXuugBAbpPra73-3m00]-->
    </g>
</svg>